<?xml version="1.0" encoding="UTF-8"?>
<svg width="200" height="50" viewBox="0 0 200 50" version="1.1" xmlns="http://www.w3.org/2000/svg">
  <g fill="#FF6B00">
    <!-- Starburst symbol -->
    <path d="M25 5 
             L28 15 L35 18 L28 21 L25 31
             L22 21 L15 18 L22 15 Z
             M20 16 L23 18 L20 20 L17 18 Z
             M30 16 L33 18 L30 20 L27 18 Z
             M23 13 L25 16 L27 13 L25 10 Z
             M23 23 L25 26 L27 23 L25 20 Z" />
    
    <!-- Text "mukuru" -->
    <path d="M60 15
             h4 v20 h-4 v-2
             c-2 1.5-4 2-6 2
             c-5 0-9-4-9-9s4-9 9-9c2 0 4 0.5 6 2v-4
             M70 26
             c0-5 4-9 9-9s9 4 9 9-4 9-9 9-9-4-9-9
             M95 26
             c0-5 4-9 9-9s9 4 9 9-4 9-9 9-9-4-9-9
             M120 18
             h4v17h-4v-17
             M120 13
             h4v3h-4v-3
             M135 17
             c5 0 9 4 9 9s-4 9-9 9-9-4-9-9 4-9 9-9
             M155 17
             c5 0 9 4 9 9s-4 9-9 9-9-4-9-9 4-9 9-9" />
  </g>
</svg> 